<svg width="315" height="315" viewBox="0 0 315 315" fill="none" xmlns="http://www.w3.org/2000/svg">
<g filter="url(#filter0_dddddd_569_8785)">
<circle cx="157.5" cy="119.5" r="77.5" fill="white"/>
</g>
<path d="M180.118 107.581C180.151 108.071 180.151 108.561 180.151 109.056C180.151 124.124 168.68 141.502 147.705 141.502V141.493C141.509 141.502 135.442 139.727 130.226 136.381C131.127 136.489 132.032 136.543 132.94 136.546C138.075 136.55 143.063 134.827 147.102 131.655C142.223 131.562 137.944 128.38 136.449 123.736C138.158 124.065 139.919 123.998 141.597 123.539C136.277 122.464 132.45 117.79 132.45 112.362C132.45 112.312 132.45 112.265 132.45 112.217C134.035 113.1 135.81 113.59 137.625 113.644C132.615 110.296 131.07 103.63 134.096 98.4182C139.886 105.542 148.428 109.873 157.598 110.332C156.679 106.371 157.934 102.221 160.897 99.4365C165.49 95.1191 172.713 95.3404 177.031 99.9311C179.585 99.4275 182.032 98.4904 184.272 97.1627C183.421 99.8024 181.639 102.045 179.259 103.469C181.52 103.203 183.728 102.598 185.808 101.674C184.277 103.968 182.348 105.967 180.118 107.581Z" fill="#1D9BF0"/>
<defs>
<filter id="filter0_dddddd_569_8785" x="0" y="0" width="315" height="315" filterUnits="userSpaceOnUse" color-interpolation-filters="sRGB">
<feFlood flood-opacity="0" result="BackgroundImageFix"/>
<feColorMatrix in="SourceAlpha" type="matrix" values="0 0 0 0 0 0 0 0 0 0 0 0 0 0 0 0 0 0 127 0" result="hardAlpha"/>
<feOffset dy="0.703704"/>
<feGaussianBlur stdDeviation="1.57407"/>
<feColorMatrix type="matrix" values="0 0 0 0 0 0 0 0 0 0 0 0 0 0 0 0 0 0 0.0168519 0"/>
<feBlend mode="normal" in2="BackgroundImageFix" result="effect1_dropShadow_569_8785"/>
<feColorMatrix in="SourceAlpha" type="matrix" values="0 0 0 0 0 0 0 0 0 0 0 0 0 0 0 0 0 0 127 0" result="hardAlpha"/>
<feOffset dy="3.0963"/>
<feGaussianBlur stdDeviation="3.25926"/>
<feColorMatrix type="matrix" values="0 0 0 0 0 0 0 0 0 0 0 0 0 0 0 0 0 0 0.0274815 0"/>
<feBlend mode="normal" in2="effect1_dropShadow_569_8785" result="effect2_dropShadow_569_8785"/>
<feColorMatrix in="SourceAlpha" type="matrix" values="0 0 0 0 0 0 0 0 0 0 0 0 0 0 0 0 0 0 127 0" result="hardAlpha"/>
<feOffset dy="7.6"/>
<feGaussianBlur stdDeviation="6.5"/>
<feColorMatrix type="matrix" values="0 0 0 0 0 0 0 0 0 0 0 0 0 0 0 0 0 0 0.035 0"/>
<feBlend mode="normal" in2="effect2_dropShadow_569_8785" result="effect3_dropShadow_569_8785"/>
<feColorMatrix in="SourceAlpha" type="matrix" values="0 0 0 0 0 0 0 0 0 0 0 0 0 0 0 0 0 0 127 0" result="hardAlpha"/>
<feOffset dy="14.637"/>
<feGaussianBlur stdDeviation="12.7407"/>
<feColorMatrix type="matrix" values="0 0 0 0 0 0 0 0 0 0 0 0 0 0 0 0 0 0 0.0425185 0"/>
<feBlend mode="normal" in2="effect3_dropShadow_569_8785" result="effect4_dropShadow_569_8785"/>
<feColorMatrix in="SourceAlpha" type="matrix" values="0 0 0 0 0 0 0 0 0 0 0 0 0 0 0 0 0 0 127 0" result="hardAlpha"/>
<feOffset dy="24.6296"/>
<feGaussianBlur stdDeviation="23.4259"/>
<feColorMatrix type="matrix" values="0 0 0 0 0 0 0 0 0 0 0 0 0 0 0 0 0 0 0.0531481 0"/>
<feBlend mode="normal" in2="effect4_dropShadow_569_8785" result="effect5_dropShadow_569_8785"/>
<feColorMatrix in="SourceAlpha" type="matrix" values="0 0 0 0 0 0 0 0 0 0 0 0 0 0 0 0 0 0 127 0" result="hardAlpha"/>
<feOffset dy="38"/>
<feGaussianBlur stdDeviation="40"/>
<feColorMatrix type="matrix" values="0 0 0 0 0 0 0 0 0 0 0 0 0 0 0 0 0 0 0.07 0"/>
<feBlend mode="normal" in2="effect5_dropShadow_569_8785" result="effect6_dropShadow_569_8785"/>
<feBlend mode="normal" in="SourceGraphic" in2="effect6_dropShadow_569_8785" result="shape"/>
</filter>
</defs>
</svg>
